<?xml version="1.0" encoding="utf-8"?>
<!-- Generator: Adobe Illustrator 19.0.0, SVG Export Plug-In . SVG Version: 6.00 Build 0)  -->
<svg version="1.1" id="Layer_1" xmlns="http://www.w3.org/2000/svg" xmlns:xlink="http://www.w3.org/1999/xlink" x="0px" y="0px"
	 width="2048px" height="2048px" viewBox="0 0 2048 2048" style="enable-background:new 0 0 2048 2048;" xml:space="preserve">
<style type="text/css">
	.st0{display:none;fill:#FFFFFF;}
	.st1{fill:url(#XMLID_8_);}
	.st2{fill:#038CB5;stroke:#FFFFFF;stroke-width:50;stroke-miterlimit:10;}
	.st3{fill:#FFFFFF;stroke:#FFFFFF;stroke-width:50;stroke-miterlimit:10;}
	.st4{fill:url(#XMLID_9_);}
	.st5{fill:url(#XMLID_10_);}
</style>
<path id="XMLID_14_" class="st0" d="M1606.2,2048H441.8C198.8,2048,0,1849.2,0,1606.2V441.8C0,198.8,198.8,0,441.8,0h1164.3
	c243,0,441.8,198.8,441.8,441.8v1164.3C2048,1849.2,1849.2,2048,1606.2,2048z"/>
<linearGradient id="XMLID_8_" gradientUnits="userSpaceOnUse" x1="1642.3745" y1="2095.0562" x2="405.6255" y2="-47.056">
	<stop  offset="0" style="stop-color:#A7CF38"/>
	<stop  offset="1" style="stop-color:#038CB5"/>
</linearGradient>
<path id="XMLID_4_" class="st1" d="M1606.2,2048H441.8C198.8,2048,0,1849.2,0,1606.2V441.8C0,198.8,198.8,0,441.8,0h1164.3
	c243,0,441.8,198.8,441.8,441.8v1164.3C2048,1849.2,1849.2,2048,1606.2,2048z"/>
<g id="XMLID_1_">
	<path id="XMLID_5_" class="st2" d="M1024,1736c393.2,0,712-318.8,712-712H312C312,1417.2,630.8,1736,1024,1736z"/>
	<path id="XMLID_6_" class="st3" d="M1736,1024c0-393.2-318.8-712-712-712s-712,318.8-712,712H1736z"/>
</g>
<linearGradient id="XMLID_9_" gradientUnits="userSpaceOnUse" x1="345" y1="842.404" x2="1701" y2="842.404">
	<stop  offset="0" style="stop-color:#A7CF38"/>
	<stop  offset="1" style="stop-color:#038CB5"/>
</linearGradient>
<path id="XMLID_2_" class="st4" d="M1701,1003c-158-10-289,0-384-4c-126.6-5.3-189.9-23.6-250-60c-106.2-64.2-119.2-143.7-198-150
	c-87.1-6.9-130.3,85.6-188,64c-65.2-24.4-45.6-155.9-90-170c-34.5-11-102.9,50.4-246,320H1701"/>
<linearGradient id="XMLID_10_" gradientUnits="userSpaceOnUse" x1="1249" y1="615" x2="1485" y2="615">
	<stop  offset="0" style="stop-color:#FFF33B"/>
	<stop  offset="5.948725e-002" style="stop-color:#FFE029"/>
	<stop  offset="0.1303" style="stop-color:#FFD218"/>
	<stop  offset="0.2032" style="stop-color:#FEC90F"/>
	<stop  offset="0.2809" style="stop-color:#FDC70C"/>
	<stop  offset="0.6685" style="stop-color:#F3903F"/>
	<stop  offset="0.8876" style="stop-color:#ED683C"/>
	<stop  offset="1" style="stop-color:#E93E3A"/>
</linearGradient>
<circle id="XMLID_3_" class="st5" cx="1367" cy="615" r="118"/>
</svg>
